ISO-10303-21;
HEADER;
/* Generated by software containing ST-Developer
 * from STEP Tools, Inc. (www.steptools.com) 
 */

FILE_DESCRIPTION(
/* description */ (''),
/* implementation_level */ '2;1');

FILE_NAME(
/* name */ 'C:\\Users\\\X2\8B1D667A54F2\X0\\\Desktop\\\X2\96F64EF6\X0\1.
stp',
/* time_stamp */ '2026-09-09T11:42:41+08:00',
/* author */ ('\X2\8B1D667A54F2\X0\'),
/* organization */ (''),
/* preprocessor_version */ 'ST-DEVELOPER v18.1',
/* originating_system */ 'Autodesk Inventor 2022',
/* authorisation */ '');

FILE_SCHEMA (('AUTOMOTIVE_DESIGN { 1 0 10303 214 3 1 1 }'));
ENDSEC;

DATA;
#10=MECHANICAL_DESIGN_GEOMETRIC_PRESENTATION_REPRESENTATION('',(#13),#964);
#11=SHAPE_REPRESENTATION_RELATIONSHIP('SRR','None',#971,#12);
#12=ADVANCED_BREP_SHAPE_REPRESENTATION('',(#14),#963);
#13=STYLED_ITEM('',(#980),#14);
#14=MANIFOLD_SOLID_BREP('\X2\5BE69AD4\X0\1',#590);
#15=CYLINDRICAL_SURFACE('',#623,2.);
#16=CYLINDRICAL_SURFACE('',#626,2.);
#17=CYLINDRICAL_SURFACE('',#629,2.);
#18=CYLINDRICAL_SURFACE('',#632,2.);
#19=FACE_BOUND('',#69,.T.);
#20=FACE_BOUND('',#70,.T.);
#21=FACE_BOUND('',#89,.T.);
#22=FACE_BOUND('',#90,.T.);
#23=CIRCLE('',#619,2.);
#24=CIRCLE('',#620,2.);
#25=CIRCLE('',#621,2.);
#26=CIRCLE('',#622,2.);
#27=CIRCLE('',#624,2.);
#28=CIRCLE('',#627,2.);
#29=CIRCLE('',#630,2.);
#30=CIRCLE('',#633,2.);
#31=FACE_OUTER_BOUND('',#60,.T.);
#32=FACE_OUTER_BOUND('',#61,.T.);
#33=FACE_OUTER_BOUND('',#62,.T.);
#34=FACE_OUTER_BOUND('',#63,.T.);
#35=FACE_OUTER_BOUND('',#64,.T.);
#36=FACE_OUTER_BOUND('',#65,.T.);
#37=FACE_OUTER_BOUND('',#66,.T.);
#38=FACE_OUTER_BOUND('',#67,.T.);
#39=FACE_OUTER_BOUND('',#68,.T.);
#40=FACE_OUTER_BOUND('',#71,.T.);
#41=FACE_OUTER_BOUND('',#72,.T.);
#42=FACE_OUTER_BOUND('',#73,.T.);
#43=FACE_OUTER_BOUND('',#74,.T.);
#44=FACE_OUTER_BOUND('',#75,.T.);
#45=FACE_OUTER_BOUND('',#76,.T.);
#46=FACE_OUTER_BOUND('',#77,.T.);
#47=FACE_OUTER_BOUND('',#78,.T.);
#48=FACE_OUTER_BOUND('',#79,.T.);
#49=FACE_OUTER_BOUND('',#80,.T.);
#50=FACE_OUTER_BOUND('',#81,.T.);
#51=FACE_OUTER_BOUND('',#82,.T.);
#52=FACE_OUTER_BOUND('',#83,.T.);
#53=FACE_OUTER_BOUND('',#84,.T.);
#54=FACE_OUTER_BOUND('',#85,.T.);
#55=FACE_OUTER_BOUND('',#86,.T.);
#56=FACE_OUTER_BOUND('',#87,.T.);
#57=FACE_OUTER_BOUND('',#88,.T.);
#58=FACE_OUTER_BOUND('',#91,.T.);
#59=FACE_OUTER_BOUND('',#92,.T.);
#60=EDGE_LOOP('',(#374,#375,#376,#377));
#61=EDGE_LOOP('',(#378,#379,#380,#381));
#62=EDGE_LOOP('',(#382,#383,#384,#385,#386,#387));
#63=EDGE_LOOP('',(#388,#389,#390,#391,#392,#393,#394,#395,#396,#397,#398,
#399,#400,#401));
#64=EDGE_LOOP('',(#402,#403,#404,#405,#406,#407));
#65=EDGE_LOOP('',(#408,#409,#410,#411));
#66=EDGE_LOOP('',(#412,#413,#414,#415));
#67=EDGE_LOOP('',(#416,#417,#418,#419,#420));
#68=EDGE_LOOP('',(#421,#422,#423,#424,#425,#426,#427,#428));
#69=EDGE_LOOP('',(#429,#430,#431,#432));
#70=EDGE_LOOP('',(#433,#434,#435,#436));
#71=EDGE_LOOP('',(#437,#438,#439,#440));
#72=EDGE_LOOP('',(#441,#442,#443,#444));
#73=EDGE_LOOP('',(#445,#446,#447,#448));
#74=EDGE_LOOP('',(#449,#450,#451,#452));
#75=EDGE_LOOP('',(#453,#454,#455,#456));
#76=EDGE_LOOP('',(#457,#458,#459,#460));
#77=EDGE_LOOP('',(#461,#462,#463,#464));
#78=EDGE_LOOP('',(#465,#466,#467,#468));
#79=EDGE_LOOP('',(#469,#470,#471,#472));
#80=EDGE_LOOP('',(#473,#474,#475,#476));
#81=EDGE_LOOP('',(#477,#478,#479,#480));
#82=EDGE_LOOP('',(#481,#482,#483,#484));
#83=EDGE_LOOP('',(#485,#486,#487,#488));
#84=EDGE_LOOP('',(#489,#490,#491,#492));
#85=EDGE_LOOP('',(#493,#494,#495,#496,#497,#498,#499));
#86=EDGE_LOOP('',(#500,#501,#502,#503));
#87=EDGE_LOOP('',(#504,#505,#506,#507));
#88=EDGE_LOOP('',(#508,#509,#510,#511));
#89=EDGE_LOOP('',(#512,#513,#514,#515));
#90=EDGE_LOOP('',(#516,#517,#518,#519));
#91=EDGE_LOOP('',(#520,#521,#522,#523));
#92=EDGE_LOOP('',(#524,#525,#526,#527,#528,#529,#530,#531,#532,#533,#534,
#535));
#93=LINE('',#800,#166);
#94=LINE('',#802,#167);
#95=LINE('',#804,#168);
#96=LINE('',#805,#169);
#97=LINE('',#808,#170);
#98=LINE('',#810,#171);
#99=LINE('',#811,#172);
#100=LINE('',#814,#173);
#101=LINE('',#816,#174);
#102=LINE('',#818,#175);
#103=LINE('',#819,#176);
#104=LINE('',#822,#177);
#105=LINE('',#824,#178);
#106=LINE('',#826,#179);
#107=LINE('',#828,#180);
#108=LINE('',#830,#181);
#109=LINE('',#832,#182);
#110=LINE('',#834,#183);
#111=LINE('',#836,#184);
#112=LINE('',#838,#185);
#113=LINE('',#840,#186);
#114=LINE('',#842,#187);
#115=LINE('',#843,#188);
#116=LINE('',#846,#189);
#117=LINE('',#848,#190);
#118=LINE('',#849,#191);
#119=LINE('',#852,#192);
#120=LINE('',#853,#193);
#121=LINE('',#856,#194);
#122=LINE('',#857,#195);
#123=LINE('',#860,#196);
#124=LINE('',#862,#197);
#125=LINE('',#864,#198);
#126=LINE('',#865,#199);
#127=LINE('',#869,#200);
#128=LINE('',#870,#201);
#129=LINE('',#871,#202);
#130=LINE('',#876,#203);
#131=LINE('',#879,#204);
#132=LINE('',#884,#205);
#133=LINE('',#887,#206);
#134=LINE('',#890,#207);
#135=LINE('',#893,#208);
#136=LINE('',#896,#209);
#137=LINE('',#897,#210);
#138=LINE('',#901,#211);
#139=LINE('',#903,#212);
#140=LINE('',#906,#213);
#141=LINE('',#909,#214);
#142=LINE('',#912,#215);
#143=LINE('',#913,#216);
#144=LINE('',#917,#217);
#145=LINE('',#919,#218);
#146=LINE('',#922,#219);
#147=LINE('',#924,#220);
#148=LINE('',#925,#221);
#149=LINE('',#928,#222);
#150=LINE('',#930,#223);
#151=LINE('',#931,#224);
#152=LINE('',#933,#225);
#153=LINE('',#936,#226);
#154=LINE('',#937,#227);
#155=LINE('',#940,#228);
#156=LINE('',#941,#229);
#157=LINE('',#944,#230);
#158=LINE('',#945,#231);
#159=LINE('',#948,#232);
#160=LINE('',#950,#233);
#161=LINE('',#951,#234);
#162=LINE('',#952,#235);
#163=LINE('',#954,#236);
#164=LINE('',#956,#237);
#165=LINE('',#958,#238);
#166=VECTOR('',#651,10.);
#167=VECTOR('',#652,10.);
#168=VECTOR('',#653,10.);
#169=VECTOR('',#654,10.);
#170=VECTOR('',#657,10.);
#171=VECTOR('',#658,10.);
#172=VECTOR('',#659,10.);
#173=VECTOR('',#662,10.);
#174=VECTOR('',#663,10.);
#175=VECTOR('',#664,10.);
#176=VECTOR('',#665,10.);
#177=VECTOR('',#668,10.);
#178=VECTOR('',#669,10.);
#179=VECTOR('',#670,10.);
#180=VECTOR('',#671,10.);
#181=VECTOR('',#672,10.);
#182=VECTOR('',#673,10.);
#183=VECTOR('',#674,10.);
#184=VECTOR('',#675,10.);
#185=VECTOR('',#676,10.);
#186=VECTOR('',#677,10.);
#187=VECTOR('',#678,10.);
#188=VECTOR('',#679,10.);
#189=VECTOR('',#682,10.);
#190=VECTOR('',#683,10.);
#191=VECTOR('',#684,10.);
#192=VECTOR('',#687,10.);
#193=VECTOR('',#688,10.);
#194=VECTOR('',#691,10.);
#195=VECTOR('',#692,10.);
#196=VECTOR('',#695,10.);
#197=VECTOR('',#696,10.);
#198=VECTOR('',#697,10.);
#199=VECTOR('',#698,10.);
#200=VECTOR('',#701,10.);
#201=VECTOR('',#702,10.);
#202=VECTOR('',#703,10.);
#203=VECTOR('',#706,10.);
#204=VECTOR('',#709,10.);
#205=VECTOR('',#712,10.);
#206=VECTOR('',#715,10.);
#207=VECTOR('',#718,10.);
#208=VECTOR('',#721,10.);
#209=VECTOR('',#724,10.);
#210=VECTOR('',#725,10.);
#211=VECTOR('',#730,10.);
#212=VECTOR('',#733,10.);
#213=VECTOR('',#736,10.);
#214=VECTOR('',#739,10.);
#215=VECTOR('',#742,10.);
#216=VECTOR('',#743,10.);
#217=VECTOR('',#748,10.);
#218=VECTOR('',#751,10.);
#219=VECTOR('',#754,10.);
#220=VECTOR('',#755,10.);
#221=VECTOR('',#756,10.);
#222=VECTOR('',#759,10.);
#223=VECTOR('',#760,10.);
#224=VECTOR('',#761,10.);
#225=VECTOR('',#764,10.);
#226=VECTOR('',#767,10.);
#227=VECTOR('',#768,10.);
#228=VECTOR('',#771,10.);
#229=VECTOR('',#772,10.);
#230=VECTOR('',#775,10.);
#231=VECTOR('',#776,10.);
#232=VECTOR('',#779,10.);
#233=VECTOR('',#780,10.);
#234=VECTOR('',#781,10.);
#235=VECTOR('',#782,10.);
#236=VECTOR('',#785,10.);
#237=VECTOR('',#788,10.);
#238=VECTOR('',#791,10.);
#239=VERTEX_POINT('',#798);
#240=VERTEX_POINT('',#799);
#241=VERTEX_POINT('',#801);
#242=VERTEX_POINT('',#803);
#243=VERTEX_POINT('',#807);
#244=VERTEX_POINT('',#809);
#245=VERTEX_POINT('',#813);
#246=VERTEX_POINT('',#815);
#247=VERTEX_POINT('',#817);
#248=VERTEX_POINT('',#821);
#249=VERTEX_POINT('',#823);
#250=VERTEX_POINT('',#825);
#251=VERTEX_POINT('',#827);
#252=VERTEX_POINT('',#829);
#253=VERTEX_POINT('',#831);
#254=VERTEX_POINT('',#833);
#255=VERTEX_POINT('',#835);
#256=VERTEX_POINT('',#837);
#257=VERTEX_POINT('',#839);
#258=VERTEX_POINT('',#841);
#259=VERTEX_POINT('',#845);
#260=VERTEX_POINT('',#847);
#261=VERTEX_POINT('',#851);
#262=VERTEX_POINT('',#855);
#263=VERTEX_POINT('',#859);
#264=VERTEX_POINT('',#861);
#265=VERTEX_POINT('',#863);
#266=VERTEX_POINT('',#867);
#267=VERTEX_POINT('',#868);
#268=VERTEX_POINT('',#872);
#269=VERTEX_POINT('',#873);
#270=VERTEX_POINT('',#875);
#271=VERTEX_POINT('',#877);
#272=VERTEX_POINT('',#880);
#273=VERTEX_POINT('',#881);
#274=VERTEX_POINT('',#883);
#275=VERTEX_POINT('',#885);
#276=VERTEX_POINT('',#889);
#277=VERTEX_POINT('',#891);
#278=VERTEX_POINT('',#895);
#279=VERTEX_POINT('',#899);
#280=VERTEX_POINT('',#905);
#281=VERTEX_POINT('',#907);
#282=VERTEX_POINT('',#911);
#283=VERTEX_POINT('',#915);
#284=VERTEX_POINT('',#921);
#285=VERTEX_POINT('',#923);
#286=VERTEX_POINT('',#927);
#287=VERTEX_POINT('',#929);
#288=VERTEX_POINT('',#935);
#289=VERTEX_POINT('',#939);
#290=VERTEX_POINT('',#943);
#291=VERTEX_POINT('',#947);
#292=VERTEX_POINT('',#949);
#293=EDGE_CURVE('',#239,#240,#93,.T.);
#294=EDGE_CURVE('',#239,#241,#94,.T.);
#295=EDGE_CURVE('',#242,#241,#95,.T.);
#296=EDGE_CURVE('',#240,#242,#96,.T.);
#297=EDGE_CURVE('',#243,#239,#97,.T.);
#298=EDGE_CURVE('',#243,#244,#98,.T.);
#299=EDGE_CURVE('',#241,#244,#99,.T.);
#300=EDGE_CURVE('',#244,#245,#100,.T.);
#301=EDGE_CURVE('',#245,#246,#101,.T.);
#302=EDGE_CURVE('',#246,#247,#102,.T.);
#303=EDGE_CURVE('',#247,#242,#103,.T.);
#304=EDGE_CURVE('',#240,#248,#104,.T.);
#305=EDGE_CURVE('',#249,#248,#105,.T.);
#306=EDGE_CURVE('',#250,#249,#106,.T.);
#307=EDGE_CURVE('',#250,#251,#107,.T.);
#308=EDGE_CURVE('',#251,#252,#108,.T.);
#309=EDGE_CURVE('',#252,#253,#109,.T.);
#310=EDGE_CURVE('',#254,#253,#110,.T.);
#311=EDGE_CURVE('',#255,#254,#111,.T.);
#312=EDGE_CURVE('',#255,#256,#112,.T.);
#313=EDGE_CURVE('',#257,#256,#113,.T.);
#314=EDGE_CURVE('',#257,#258,#114,.T.);
#315=EDGE_CURVE('',#258,#243,#115,.T.);
#316=EDGE_CURVE('',#259,#258,#116,.T.);
#317=EDGE_CURVE('',#260,#259,#117,.T.);
#318=EDGE_CURVE('',#260,#245,#118,.T.);
#319=EDGE_CURVE('',#261,#260,#119,.T.);
#320=EDGE_CURVE('',#261,#246,#120,.T.);
#321=EDGE_CURVE('',#262,#261,#121,.T.);
#322=EDGE_CURVE('',#262,#247,#122,.T.);
#323=EDGE_CURVE('',#248,#263,#123,.T.);
#324=EDGE_CURVE('',#263,#264,#124,.T.);
#325=EDGE_CURVE('',#264,#265,#125,.T.);
#326=EDGE_CURVE('',#265,#249,#126,.T.);
#327=EDGE_CURVE('',#266,#267,#127,.T.);
#328=EDGE_CURVE('',#267,#263,#128,.T.);
#329=EDGE_CURVE('',#266,#262,#129,.T.);
#330=EDGE_CURVE('',#268,#269,#23,.T.);
#331=EDGE_CURVE('',#269,#270,#130,.T.);
#332=EDGE_CURVE('',#270,#271,#24,.T.);
#333=EDGE_CURVE('',#271,#268,#131,.T.);
#334=EDGE_CURVE('',#272,#273,#25,.T.);
#335=EDGE_CURVE('',#273,#274,#132,.T.);
#336=EDGE_CURVE('',#274,#275,#26,.T.);
#337=EDGE_CURVE('',#275,#272,#133,.T.);
#338=EDGE_CURVE('',#276,#274,#134,.T.);
#339=EDGE_CURVE('',#277,#276,#27,.T.);
#340=EDGE_CURVE('',#277,#275,#135,.T.);
#341=EDGE_CURVE('',#278,#277,#136,.T.);
#342=EDGE_CURVE('',#278,#272,#137,.T.);
#343=EDGE_CURVE('',#279,#278,#28,.T.);
#344=EDGE_CURVE('',#279,#273,#138,.T.);
#345=EDGE_CURVE('',#276,#279,#139,.T.);
#346=EDGE_CURVE('',#280,#270,#140,.T.);
#347=EDGE_CURVE('',#281,#280,#29,.T.);
#348=EDGE_CURVE('',#281,#271,#141,.T.);
#349=EDGE_CURVE('',#282,#281,#142,.T.);
#350=EDGE_CURVE('',#282,#268,#143,.T.);
#351=EDGE_CURVE('',#283,#282,#30,.T.);
#352=EDGE_CURVE('',#283,#269,#144,.T.);
#353=EDGE_CURVE('',#280,#283,#145,.T.);
#354=EDGE_CURVE('',#255,#284,#146,.T.);
#355=EDGE_CURVE('',#285,#254,#147,.T.);
#356=EDGE_CURVE('',#284,#285,#148,.T.);
#357=EDGE_CURVE('',#286,#252,#149,.T.);
#358=EDGE_CURVE('',#286,#287,#150,.T.);
#359=EDGE_CURVE('',#253,#287,#151,.T.);
#360=EDGE_CURVE('',#287,#285,#152,.T.);
#361=EDGE_CURVE('',#284,#288,#153,.T.);
#362=EDGE_CURVE('',#256,#288,#154,.T.);
#363=EDGE_CURVE('',#289,#251,#155,.T.);
#364=EDGE_CURVE('',#289,#286,#156,.T.);
#365=EDGE_CURVE('',#288,#290,#157,.T.);
#366=EDGE_CURVE('',#290,#257,#158,.T.);
#367=EDGE_CURVE('',#291,#250,#159,.T.);
#368=EDGE_CURVE('',#292,#291,#160,.T.);
#369=EDGE_CURVE('',#267,#292,#161,.T.);
#370=EDGE_CURVE('',#289,#266,#162,.T.);
#371=EDGE_CURVE('',#259,#290,#163,.T.);
#372=EDGE_CURVE('',#291,#265,#164,.T.);
#373=EDGE_CURVE('',#292,#264,#165,.T.);
#374=ORIENTED_EDGE('',*,*,#293,.F.);
#375=ORIENTED_EDGE('',*,*,#294,.T.);
#376=ORIENTED_EDGE('',*,*,#295,.F.);
#377=ORIENTED_EDGE('',*,*,#296,.F.);
#378=ORIENTED_EDGE('',*,*,#297,.F.);
#379=ORIENTED_EDGE('',*,*,#298,.T.);
#380=ORIENTED_EDGE('',*,*,#299,.F.);
#381=ORIENTED_EDGE('',*,*,#294,.F.);
#382=ORIENTED_EDGE('',*,*,#299,.T.);
#383=ORIENTED_EDGE('',*,*,#300,.T.);
#384=ORIENTED_EDGE('',*,*,#301,.T.);
#385=ORIENTED_EDGE('',*,*,#302,.T.);
#386=ORIENTED_EDGE('',*,*,#303,.T.);
#387=ORIENTED_EDGE('',*,*,#295,.T.);
#388=ORIENTED_EDGE('',*,*,#297,.T.);
#389=ORIENTED_EDGE('',*,*,#293,.T.);
#390=ORIENTED_EDGE('',*,*,#304,.T.);
#391=ORIENTED_EDGE('',*,*,#305,.F.);
#392=ORIENTED_EDGE('',*,*,#306,.F.);
#393=ORIENTED_EDGE('',*,*,#307,.T.);
#394=ORIENTED_EDGE('',*,*,#308,.T.);
#395=ORIENTED_EDGE('',*,*,#309,.T.);
#396=ORIENTED_EDGE('',*,*,#310,.F.);
#397=ORIENTED_EDGE('',*,*,#311,.F.);
#398=ORIENTED_EDGE('',*,*,#312,.T.);
#399=ORIENTED_EDGE('',*,*,#313,.F.);
#400=ORIENTED_EDGE('',*,*,#314,.T.);
#401=ORIENTED_EDGE('',*,*,#315,.T.);
#402=ORIENTED_EDGE('',*,*,#316,.F.);
#403=ORIENTED_EDGE('',*,*,#317,.F.);
#404=ORIENTED_EDGE('',*,*,#318,.T.);
#405=ORIENTED_EDGE('',*,*,#300,.F.);
#406=ORIENTED_EDGE('',*,*,#298,.F.);
#407=ORIENTED_EDGE('',*,*,#315,.F.);
#408=ORIENTED_EDGE('',*,*,#319,.F.);
#409=ORIENTED_EDGE('',*,*,#320,.T.);
#410=ORIENTED_EDGE('',*,*,#301,.F.);
#411=ORIENTED_EDGE('',*,*,#318,.F.);
#412=ORIENTED_EDGE('',*,*,#321,.F.);
#413=ORIENTED_EDGE('',*,*,#322,.T.);
#414=ORIENTED_EDGE('',*,*,#302,.F.);
#415=ORIENTED_EDGE('',*,*,#320,.F.);
#416=ORIENTED_EDGE('',*,*,#305,.T.);
#417=ORIENTED_EDGE('',*,*,#323,.T.);
#418=ORIENTED_EDGE('',*,*,#324,.T.);
#419=ORIENTED_EDGE('',*,*,#325,.T.);
#420=ORIENTED_EDGE('',*,*,#326,.T.);
#421=ORIENTED_EDGE('',*,*,#327,.T.);
#422=ORIENTED_EDGE('',*,*,#328,.T.);
#423=ORIENTED_EDGE('',*,*,#323,.F.);
#424=ORIENTED_EDGE('',*,*,#304,.F.);
#425=ORIENTED_EDGE('',*,*,#296,.T.);
#426=ORIENTED_EDGE('',*,*,#303,.F.);
#427=ORIENTED_EDGE('',*,*,#322,.F.);
#428=ORIENTED_EDGE('',*,*,#329,.F.);
#429=ORIENTED_EDGE('',*,*,#330,.T.);
#430=ORIENTED_EDGE('',*,*,#331,.T.);
#431=ORIENTED_EDGE('',*,*,#332,.T.);
#432=ORIENTED_EDGE('',*,*,#333,.T.);
#433=ORIENTED_EDGE('',*,*,#334,.T.);
#434=ORIENTED_EDGE('',*,*,#335,.T.);
#435=ORIENTED_EDGE('',*,*,#336,.T.);
#436=ORIENTED_EDGE('',*,*,#337,.T.);
#437=ORIENTED_EDGE('',*,*,#336,.F.);
#438=ORIENTED_EDGE('',*,*,#338,.F.);
#439=ORIENTED_EDGE('',*,*,#339,.F.);
#440=ORIENTED_EDGE('',*,*,#340,.T.);
#441=ORIENTED_EDGE('',*,*,#337,.F.);
#442=ORIENTED_EDGE('',*,*,#340,.F.);
#443=ORIENTED_EDGE('',*,*,#341,.F.);
#444=ORIENTED_EDGE('',*,*,#342,.T.);
#445=ORIENTED_EDGE('',*,*,#334,.F.);
#446=ORIENTED_EDGE('',*,*,#342,.F.);
#447=ORIENTED_EDGE('',*,*,#343,.F.);
#448=ORIENTED_EDGE('',*,*,#344,.T.);
#449=ORIENTED_EDGE('',*,*,#335,.F.);
#450=ORIENTED_EDGE('',*,*,#344,.F.);
#451=ORIENTED_EDGE('',*,*,#345,.F.);
#452=ORIENTED_EDGE('',*,*,#338,.T.);
#453=ORIENTED_EDGE('',*,*,#332,.F.);
#454=ORIENTED_EDGE('',*,*,#346,.F.);
#455=ORIENTED_EDGE('',*,*,#347,.F.);
#456=ORIENTED_EDGE('',*,*,#348,.T.);
#457=ORIENTED_EDGE('',*,*,#333,.F.);
#458=ORIENTED_EDGE('',*,*,#348,.F.);
#459=ORIENTED_EDGE('',*,*,#349,.F.);
#460=ORIENTED_EDGE('',*,*,#350,.T.);
#461=ORIENTED_EDGE('',*,*,#330,.F.);
#462=ORIENTED_EDGE('',*,*,#350,.F.);
#463=ORIENTED_EDGE('',*,*,#351,.F.);
#464=ORIENTED_EDGE('',*,*,#352,.T.);
#465=ORIENTED_EDGE('',*,*,#331,.F.);
#466=ORIENTED_EDGE('',*,*,#352,.F.);
#467=ORIENTED_EDGE('',*,*,#353,.F.);
#468=ORIENTED_EDGE('',*,*,#346,.T.);
#469=ORIENTED_EDGE('',*,*,#354,.F.);
#470=ORIENTED_EDGE('',*,*,#311,.T.);
#471=ORIENTED_EDGE('',*,*,#355,.F.);
#472=ORIENTED_EDGE('',*,*,#356,.F.);
#473=ORIENTED_EDGE('',*,*,#357,.F.);
#474=ORIENTED_EDGE('',*,*,#358,.T.);
#475=ORIENTED_EDGE('',*,*,#359,.F.);
#476=ORIENTED_EDGE('',*,*,#309,.F.);
#477=ORIENTED_EDGE('',*,*,#310,.T.);
#478=ORIENTED_EDGE('',*,*,#359,.T.);
#479=ORIENTED_EDGE('',*,*,#360,.T.);
#480=ORIENTED_EDGE('',*,*,#355,.T.);
#481=ORIENTED_EDGE('',*,*,#354,.T.);
#482=ORIENTED_EDGE('',*,*,#361,.T.);
#483=ORIENTED_EDGE('',*,*,#362,.F.);
#484=ORIENTED_EDGE('',*,*,#312,.F.);
#485=ORIENTED_EDGE('',*,*,#357,.T.);
#486=ORIENTED_EDGE('',*,*,#308,.F.);
#487=ORIENTED_EDGE('',*,*,#363,.F.);
#488=ORIENTED_EDGE('',*,*,#364,.T.);
#489=ORIENTED_EDGE('',*,*,#313,.T.);
#490=ORIENTED_EDGE('',*,*,#362,.T.);
#491=ORIENTED_EDGE('',*,*,#365,.T.);
#492=ORIENTED_EDGE('',*,*,#366,.T.);
#493=ORIENTED_EDGE('',*,*,#367,.F.);
#494=ORIENTED_EDGE('',*,*,#368,.F.);
#495=ORIENTED_EDGE('',*,*,#369,.F.);
#496=ORIENTED_EDGE('',*,*,#327,.F.);
#497=ORIENTED_EDGE('',*,*,#370,.F.);
#498=ORIENTED_EDGE('',*,*,#363,.T.);
#499=ORIENTED_EDGE('',*,*,#307,.F.);
#500=ORIENTED_EDGE('',*,*,#316,.T.);
#501=ORIENTED_EDGE('',*,*,#314,.F.);
#502=ORIENTED_EDGE('',*,*,#366,.F.);
#503=ORIENTED_EDGE('',*,*,#371,.F.);
#504=ORIENTED_EDGE('',*,*,#367,.T.);
#505=ORIENTED_EDGE('',*,*,#306,.T.);
#506=ORIENTED_EDGE('',*,*,#326,.F.);
#507=ORIENTED_EDGE('',*,*,#372,.F.);
#508=ORIENTED_EDGE('',*,*,#368,.T.);
#509=ORIENTED_EDGE('',*,*,#372,.T.);
#510=ORIENTED_EDGE('',*,*,#325,.F.);
#511=ORIENTED_EDGE('',*,*,#373,.F.);
#512=ORIENTED_EDGE('',*,*,#343,.T.);
#513=ORIENTED_EDGE('',*,*,#341,.T.);
#514=ORIENTED_EDGE('',*,*,#339,.T.);
#515=ORIENTED_EDGE('',*,*,#345,.T.);
#516=ORIENTED_EDGE('',*,*,#351,.T.);
#517=ORIENTED_EDGE('',*,*,#349,.T.);
#518=ORIENTED_EDGE('',*,*,#347,.T.);
#519=ORIENTED_EDGE('',*,*,#353,.T.);
#520=ORIENTED_EDGE('',*,*,#369,.T.);
#521=ORIENTED_EDGE('',*,*,#373,.T.);
#522=ORIENTED_EDGE('',*,*,#324,.F.);
#523=ORIENTED_EDGE('',*,*,#328,.F.);
#524=ORIENTED_EDGE('',*,*,#371,.T.);
#525=ORIENTED_EDGE('',*,*,#365,.F.);
#526=ORIENTED_EDGE('',*,*,#361,.F.);
#527=ORIENTED_EDGE('',*,*,#356,.T.);
#528=ORIENTED_EDGE('',*,*,#360,.F.);
#529=ORIENTED_EDGE('',*,*,#358,.F.);
#530=ORIENTED_EDGE('',*,*,#364,.F.);
#531=ORIENTED_EDGE('',*,*,#370,.T.);
#532=ORIENTED_EDGE('',*,*,#329,.T.);
#533=ORIENTED_EDGE('',*,*,#321,.T.);
#534=ORIENTED_EDGE('',*,*,#319,.T.);
#535=ORIENTED_EDGE('',*,*,#317,.T.);
#536=PLANE('',#610);
#537=PLANE('',#611);
#538=PLANE('',#612);
#539=PLANE('',#613);
#540=PLANE('',#614);
#541=PLANE('',#615);
#542=PLANE('',#616);
#543=PLANE('',#617);
#544=PLANE('',#618);
#545=PLANE('',#625);
#546=PLANE('',#628);
#547=PLANE('',#631);
#548=PLANE('',#634);
#549=PLANE('',#635);
#550=PLANE('',#636);
#551=PLANE('',#637);
#552=PLANE('',#638);
#553=PLANE('',#639);
#554=PLANE('',#640);
#555=PLANE('',#641);
#556=PLANE('',#642);
#557=PLANE('',#643);
#558=PLANE('',#644);
#559=PLANE('',#645);
#560=PLANE('',#646);
#561=ADVANCED_FACE('',(#31),#536,.T.);
#562=ADVANCED_FACE('',(#32),#537,.T.);
#563=ADVANCED_FACE('',(#33),#538,.T.);
#564=ADVANCED_FACE('',(#34),#539,.T.);
#565=ADVANCED_FACE('',(#35),#540,.T.);
#566=ADVANCED_FACE('',(#36),#541,.T.);
#567=ADVANCED_FACE('',(#37),#542,.T.);
#568=ADVANCED_FACE('',(#38),#543,.T.);
#569=ADVANCED_FACE('',(#39,#19,#20),#544,.T.);
#570=ADVANCED_FACE('',(#40),#15,.F.);
#571=ADVANCED_FACE('',(#41),#545,.F.);
#572=ADVANCED_FACE('',(#42),#16,.F.);
#573=ADVANCED_FACE('',(#43),#546,.F.);
#574=ADVANCED_FACE('',(#44),#17,.F.);
#575=ADVANCED_FACE('',(#45),#547,.F.);
#576=ADVANCED_FACE('',(#46),#18,.F.);
#577=ADVANCED_FACE('',(#47),#548,.F.);
#578=ADVANCED_FACE('',(#48),#549,.T.);
#579=ADVANCED_FACE('',(#49),#550,.T.);
#580=ADVANCED_FACE('',(#50),#551,.T.);
#581=ADVANCED_FACE('',(#51),#552,.T.);
#582=ADVANCED_FACE('',(#52),#553,.T.);
#583=ADVANCED_FACE('',(#53),#554,.T.);
#584=ADVANCED_FACE('',(#54),#555,.F.);
#585=ADVANCED_FACE('',(#55),#556,.T.);
#586=ADVANCED_FACE('',(#56),#557,.T.);
#587=ADVANCED_FACE('',(#57,#21,#22),#558,.T.);
#588=ADVANCED_FACE('',(#58),#559,.T.);
#589=ADVANCED_FACE('',(#59),#560,.T.);
#590=CLOSED_SHELL('',(#561,#562,#563,#564,#565,#566,#567,#568,#569,#570,
#571,#572,#573,#574,#575,#576,#577,#578,#579,#580,#581,#582,#583,#584,#585,
#586,#587,#588,#589));
#591=DERIVED_UNIT_ELEMENT(#593,1.);
#592=DERIVED_UNIT_ELEMENT(#966,-3.);
#593=(
MASS_UNIT()
NAMED_UNIT(*)
SI_UNIT($,.GRAM.)
);
#594=DERIVED_UNIT((#591,#592));
#595=MEASURE_REPRESENTATION_ITEM('density measure',
POSITIVE_RATIO_MEASURE(1.),#594);
#596=PROPERTY_DEFINITION_REPRESENTATION(#601,#598);
#597=PROPERTY_DEFINITION_REPRESENTATION(#602,#599);
#598=REPRESENTATION('material name',(#600),#963);
#599=REPRESENTATION('density',(#595),#963);
#600=DESCRIPTIVE_REPRESENTATION_ITEM('\X2\4E00822C\X0\','\X2\4E00822C\X0\');
#601=PROPERTY_DEFINITION('material property','material name',#973);
#602=PROPERTY_DEFINITION('material property','density of part',#973);
#603=DATE_TIME_ROLE('creation_date');
#604=APPLIED_DATE_AND_TIME_ASSIGNMENT(#605,#603,(#973));
#605=DATE_AND_TIME(#606,#607);
#606=CALENDAR_DATE(2026,9,9);
#607=LOCAL_TIME(0,0,0.,#608);
#608=COORDINATED_UNIVERSAL_TIME_OFFSET(0,0,.BEHIND.);
#609=AXIS2_PLACEMENT_3D('placement',#796,#647,#648);
#610=AXIS2_PLACEMENT_3D('',#797,#649,#650);
#611=AXIS2_PLACEMENT_3D('',#806,#655,#656);
#612=AXIS2_PLACEMENT_3D('',#812,#660,#661);
#613=AXIS2_PLACEMENT_3D('',#820,#666,#667);
#614=AXIS2_PLACEMENT_3D('',#844,#680,#681);
#615=AXIS2_PLACEMENT_3D('',#850,#685,#686);
#616=AXIS2_PLACEMENT_3D('',#854,#689,#690);
#617=AXIS2_PLACEMENT_3D('',#858,#693,#694);
#618=AXIS2_PLACEMENT_3D('',#866,#699,#700);
#619=AXIS2_PLACEMENT_3D('',#874,#704,#705);
#620=AXIS2_PLACEMENT_3D('',#878,#707,#708);
#621=AXIS2_PLACEMENT_3D('',#882,#710,#711);
#622=AXIS2_PLACEMENT_3D('',#886,#713,#714);
#623=AXIS2_PLACEMENT_3D('',#888,#716,#717);
#624=AXIS2_PLACEMENT_3D('',#892,#719,#720);
#625=AXIS2_PLACEMENT_3D('',#894,#722,#723);
#626=AXIS2_PLACEMENT_3D('',#898,#726,#727);
#627=AXIS2_PLACEMENT_3D('',#900,#728,#729);
#628=AXIS2_PLACEMENT_3D('',#902,#731,#732);
#629=AXIS2_PLACEMENT_3D('',#904,#734,#735);
#630=AXIS2_PLACEMENT_3D('',#908,#737,#738);
#631=AXIS2_PLACEMENT_3D('',#910,#740,#741);
#632=AXIS2_PLACEMENT_3D('',#914,#744,#745);
#633=AXIS2_PLACEMENT_3D('',#916,#746,#747);
#634=AXIS2_PLACEMENT_3D('',#918,#749,#750);
#635=AXIS2_PLACEMENT_3D('',#920,#752,#753);
#636=AXIS2_PLACEMENT_3D('',#926,#757,#758);
#637=AXIS2_PLACEMENT_3D('',#932,#762,#763);
#638=AXIS2_PLACEMENT_3D('',#934,#765,#766);
#639=AXIS2_PLACEMENT_3D('',#938,#769,#770);
#640=AXIS2_PLACEMENT_3D('',#942,#773,#774);
#641=AXIS2_PLACEMENT_3D('',#946,#777,#778);
#642=AXIS2_PLACEMENT_3D('',#953,#783,#784);
#643=AXIS2_PLACEMENT_3D('',#955,#786,#787);
#644=AXIS2_PLACEMENT_3D('',#957,#789,#790);
#645=AXIS2_PLACEMENT_3D('',#959,#792,#793);
#646=AXIS2_PLACEMENT_3D('',#960,#794,#795);
#647=DIRECTION('axis',(0.,0.,1.));
#648=DIRECTION('refdir',(1.,0.,0.));
#649=DIRECTION('center_axis',(-1.,0.,3.43918711387642E-16));
#650=DIRECTION('ref_axis',(3.43918711387642E-16,-3.10687831017727E-16,1.));
#651=DIRECTION('',(-3.43918711387642E-16,3.10687831017727E-16,-1.));
#652=DIRECTION('',(0.,1.,0.));
#653=DIRECTION('',(3.43918711387642E-16,-3.10687831017727E-16,1.));
#654=DIRECTION('',(0.,1.,0.));
#655=DIRECTION('center_axis',(-6.34413156928661E-17,0.,-1.));
#656=DIRECTION('ref_axis',(-1.,-1.97104447695274E-32,6.34413156928661E-17));
#657=DIRECTION('',(1.,1.97104447695274E-32,-6.34413156928661E-17));
#658=DIRECTION('',(0.,1.,0.));
#659=DIRECTION('',(-1.,-1.97104447695274E-32,6.34413156928661E-17));
#660=DIRECTION('center_axis',(0.,1.,0.));
#661=DIRECTION('ref_axis',(0.,0.,1.));
#662=DIRECTION('',(-3.99680288865056E-16,-3.10687831017727E-16,1.));
#663=DIRECTION('',(1.,1.97104447695274E-32,-6.34413156928661E-17));
#664=DIRECTION('',(1.14194368247159E-16,3.10687831017727E-16,-1.));
#665=DIRECTION('',(-1.,-1.97104447695274E-32,6.34413156928661E-17));
#666=DIRECTION('center_axis',(0.,1.,3.10687831017727E-16));
#667=DIRECTION('ref_axis',(0.,-3.10687831017727E-16,1.));
#668=DIRECTION('',(-1.,0.,0.));
#669=DIRECTION('',(0.,3.06161699786838E-16,-1.));
#670=DIRECTION('',(1.,0.,0.));
#671=DIRECTION('',(0.,-3.10687831017727E-16,1.));
#672=DIRECTION('',(-1.,0.,0.));
#673=DIRECTION('',(0.,0.,-1.));
#674=DIRECTION('',(1.,0.,0.));
#675=DIRECTION('',(0.,0.,-1.));
#676=DIRECTION('',(-1.,0.,0.));
#677=DIRECTION('',(0.,3.10687831017727E-16,-1.));
#678=DIRECTION('',(1.,0.,0.));
#679=DIRECTION('',(-3.10862446895044E-16,-3.06161699786838E-16,1.));
#680=DIRECTION('center_axis',(-1.,9.51741751412824E-32,-3.10862446895044E-16));
#681=DIRECTION('ref_axis',(-3.10862446895044E-16,-3.06161699786838E-16,
1.));
#682=DIRECTION('',(9.51741751412824E-32,1.,0.));
#683=DIRECTION('',(3.10862446895044E-16,3.06161699786838E-16,-1.));
#684=DIRECTION('',(0.,1.,3.06161699786838E-16));
#685=DIRECTION('center_axis',(0.,-3.06161699786838E-16,1.));
#686=DIRECTION('ref_axis',(1.,0.,0.));
#687=DIRECTION('',(-1.,0.,0.));
#688=DIRECTION('',(0.,1.,3.06161699786838E-16));
#689=DIRECTION('center_axis',(1.,-2.71926214689378E-32,8.88178419700125E-17));
#690=DIRECTION('ref_axis',(8.88178419700125E-17,3.06161699786838E-16,-1.));
#691=DIRECTION('',(-8.88178419700125E-17,-3.06161699786838E-16,1.));
#692=DIRECTION('',(0.,1.,3.06161699786838E-16));
#693=DIRECTION('center_axis',(1.,0.,0.));
#694=DIRECTION('ref_axis',(0.,0.,-1.));
#695=DIRECTION('',(0.,1.,0.));
#696=DIRECTION('',(0.,0.,1.));
#697=DIRECTION('',(0.,-1.,0.));
#698=DIRECTION('',(0.,-0.64278760968654,0.766044443118978));
#699=DIRECTION('center_axis',(0.,0.,-1.));
#700=DIRECTION('ref_axis',(0.,1.,0.));
#701=DIRECTION('',(0.,1.,0.));
#702=DIRECTION('',(1.,0.,0.));
#703=DIRECTION('',(1.,0.,0.));
#704=DIRECTION('center_axis',(0.,0.,1.));
#705=DIRECTION('ref_axis',(-1.,0.,0.));
#706=DIRECTION('',(0.,1.,0.));
#707=DIRECTION('center_axis',(0.,0.,1.));
#708=DIRECTION('ref_axis',(1.,0.,0.));
#709=DIRECTION('',(0.,-1.,0.));
#710=DIRECTION('center_axis',(0.,0.,1.));
#711=DIRECTION('ref_axis',(-1.,0.,0.));
#712=DIRECTION('',(0.,1.,0.));
#713=DIRECTION('center_axis',(0.,0.,1.));
#714=DIRECTION('ref_axis',(1.,0.,0.));
#715=DIRECTION('',(0.,-1.,0.));
#716=DIRECTION('center_axis',(0.,0.,-1.));
#717=DIRECTION('ref_axis',(1.,0.,0.));
#718=DIRECTION('',(0.,0.,-1.));
#719=DIRECTION('center_axis',(0.,0.,-1.));
#720=DIRECTION('ref_axis',(1.,0.,0.));
#721=DIRECTION('',(0.,0.,-1.));
#722=DIRECTION('center_axis',(-1.,0.,0.));
#723=DIRECTION('ref_axis',(0.,1.,0.));
#724=DIRECTION('',(0.,1.,0.));
#725=DIRECTION('',(0.,0.,-1.));
#726=DIRECTION('center_axis',(0.,0.,-1.));
#727=DIRECTION('ref_axis',(-1.,0.,0.));
#728=DIRECTION('center_axis',(0.,0.,-1.));
#729=DIRECTION('ref_axis',(-1.,0.,0.));
#730=DIRECTION('',(0.,0.,-1.));
#731=DIRECTION('center_axis',(1.,0.,0.));
#732=DIRECTION('ref_axis',(0.,-1.,0.));
#733=DIRECTION('',(0.,-1.,0.));
#734=DIRECTION('center_axis',(0.,0.,-1.));
#735=DIRECTION('ref_axis',(1.,0.,0.));
#736=DIRECTION('',(0.,0.,-1.));
#737=DIRECTION('center_axis',(0.,0.,-1.));
#738=DIRECTION('ref_axis',(1.,0.,0.));
#739=DIRECTION('',(0.,0.,-1.));
#740=DIRECTION('center_axis',(-1.,0.,0.));
#741=DIRECTION('ref_axis',(0.,1.,0.));
#742=DIRECTION('',(0.,1.,0.));
#743=DIRECTION('',(0.,0.,-1.));
#744=DIRECTION('center_axis',(0.,0.,-1.));
#745=DIRECTION('ref_axis',(-1.,0.,0.));
#746=DIRECTION('center_axis',(0.,0.,-1.));
#747=DIRECTION('ref_axis',(-1.,0.,0.));
#748=DIRECTION('',(0.,0.,-1.));
#749=DIRECTION('center_axis',(1.,0.,0.));
#750=DIRECTION('ref_axis',(0.,-1.,0.));
#751=DIRECTION('',(0.,-1.,0.));
#752=DIRECTION('center_axis',(-1.,2.22044604925031E-16,0.));
#753=DIRECTION('ref_axis',(2.22044604925031E-16,1.,0.));
#754=DIRECTION('',(-2.22044604925031E-16,-1.,0.));
#755=DIRECTION('',(2.22044604925031E-16,1.,0.));
#756=DIRECTION('',(0.,0.,-1.));
#757=DIRECTION('center_axis',(1.,-2.22044604925031E-16,0.));
#758=DIRECTION('ref_axis',(-2.22044604925031E-16,-1.,0.));
#759=DIRECTION('',(2.22044604925031E-16,1.,0.));
#760=DIRECTION('',(0.,0.,-1.));
#761=DIRECTION('',(-2.22044604925031E-16,-1.,0.));
#762=DIRECTION('center_axis',(0.,0.,-1.));
#763=DIRECTION('ref_axis',(-1.,0.,0.));
#764=DIRECTION('',(-1.,-9.25185853854297E-16,0.));
#765=DIRECTION('center_axis',(0.,0.,-1.));
#766=DIRECTION('ref_axis',(0.,-1.,0.));
#767=DIRECTION('',(-1.,0.,0.));
#768=DIRECTION('',(0.,-1.,0.));
#769=DIRECTION('center_axis',(0.,0.,-1.));
#770=DIRECTION('ref_axis',(0.,-1.,0.));
#771=DIRECTION('',(0.,1.,0.));
#772=DIRECTION('',(-1.,0.,0.));
#773=DIRECTION('center_axis',(-1.,0.,0.));
#774=DIRECTION('ref_axis',(0.,0.,1.));
#775=DIRECTION('',(0.,-3.06161699786838E-16,1.));
#776=DIRECTION('',(0.,1.,0.));
#777=DIRECTION('center_axis',(1.,0.,0.));
#778=DIRECTION('ref_axis',(0.,0.,-1.));
#779=DIRECTION('',(0.,-0.64278760968654,0.766044443118978));
#780=DIRECTION('',(0.,-1.,0.));
#781=DIRECTION('',(0.,0.,1.));
#782=DIRECTION('',(0.,3.06161699786838E-16,-1.));
#783=DIRECTION('center_axis',(0.,0.,1.));
#784=DIRECTION('ref_axis',(0.,-1.,0.));
#785=DIRECTION('',(-1.,0.,0.));
#786=DIRECTION('center_axis',(0.,0.766044443118978,0.64278760968654));
#787=DIRECTION('ref_axis',(0.,-0.64278760968654,0.766044443118978));
#788=DIRECTION('',(1.,0.,0.));
#789=DIRECTION('center_axis',(0.,0.,1.));
#790=DIRECTION('ref_axis',(0.,-1.,0.));
#791=DIRECTION('',(1.,0.,0.));
#792=DIRECTION('center_axis',(0.,1.,0.));
#793=DIRECTION('ref_axis',(0.,0.,1.));
#794=DIRECTION('center_axis',(0.,-1.,-3.06161699786838E-16));
#795=DIRECTION('ref_axis',(0.,3.06161699786838E-16,-1.));
#796=CARTESIAN_POINT('',(0.,0.,0.));
#797=CARTESIAN_POINT('Origin',(65.,5.,2.22044604925031E-15));
#798=CARTESIAN_POINT('',(65.,4.99999999999997,95.));
#799=CARTESIAN_POINT('',(65.,5.,2.22044604925031E-15));
#800=CARTESIAN_POINT('',(65.,5.,7.13282089310714));
#801=CARTESIAN_POINT('',(65.,15.,95.));
#802=CARTESIAN_POINT('',(65.,4.99999999999997,95.));
#803=CARTESIAN_POINT('',(65.,15.,0.));
#804=CARTESIAN_POINT('',(65.,15.,2.22044604925031E-15));
#805=CARTESIAN_POINT('',(65.,5.,2.22044604925031E-15));
#806=CARTESIAN_POINT('Origin',(65.,4.99999999999997,95.));
#807=CARTESIAN_POINT('',(-3.34583561990225E-14,4.99999999999997,95.));
#808=CARTESIAN_POINT('',(32.5,4.99999999999997,95.));
#809=CARTESIAN_POINT('',(-3.5527136788005E-14,15.,95.));
#810=CARTESIAN_POINT('',(-3.34583561990225E-14,4.99999999999997,95.));
#811=CARTESIAN_POINT('',(65.,15.,95.));
#812=CARTESIAN_POINT('Origin',(35.,15.,50.));
#813=CARTESIAN_POINT('',(-2.66453525910038E-14,15.,100.));
#814=CARTESIAN_POINT('',(-1.55431223447522E-14,15.,50.));
#815=CARTESIAN_POINT('',(70.,15.,100.));
#816=CARTESIAN_POINT('',(-2.66453525910038E-14,15.,100.));
#817=CARTESIAN_POINT('',(70.,15.,0.));
#818=CARTESIAN_POINT('',(70.,15.,100.));
#819=CARTESIAN_POINT('',(70.,15.,2.22044604925031E-15));
#820=CARTESIAN_POINT('Origin',(0.,5.,14.2656417862143));
#821=CARTESIAN_POINT('',(35.,5.,1.53080849893419E-15));
#822=CARTESIAN_POINT('',(0.,5.,1.53080849893419E-15));
#823=CARTESIAN_POINT('',(35.,5.,14.2656417862143));
#824=CARTESIAN_POINT('',(35.,4.99999999999999,37.5));
#825=CARTESIAN_POINT('',(0.,5.,14.2656417862143));
#826=CARTESIAN_POINT('',(0.,5.,14.2656417862143));
#827=CARTESIAN_POINT('',(0.,4.99999999999998,45.));
#828=CARTESIAN_POINT('',(0.,5.,14.2656417862143));
#829=CARTESIAN_POINT('',(-5.,4.99999999999998,45.));
#830=CARTESIAN_POINT('',(0.,4.99999999999998,45.));
#831=CARTESIAN_POINT('',(-5.,4.99999999999998,-45.));
#832=CARTESIAN_POINT('',(-5.,4.99999999999998,45.));
#833=CARTESIAN_POINT('',(-10.,4.99999999999998,-45.));
#834=CARTESIAN_POINT('',(-15.,4.99999999999998,-45.));
#835=CARTESIAN_POINT('',(-10.,4.99999999999998,45.));
#836=CARTESIAN_POINT('',(-10.,4.99999999999998,45.));
#837=CARTESIAN_POINT('',(-15.,4.99999999999998,45.));
#838=CARTESIAN_POINT('',(0.,4.99999999999998,45.));
#839=CARTESIAN_POINT('',(-15.,4.99999999999998,50.));
#840=CARTESIAN_POINT('',(-15.,4.99999999999998,50.));
#841=CARTESIAN_POINT('',(-1.55431223447522E-14,4.99999999999998,50.));
#842=CARTESIAN_POINT('',(0.,4.99999999999998,50.));
#843=CARTESIAN_POINT('',(-3.10862446895044E-14,4.99999999999997,100.));
#844=CARTESIAN_POINT('Origin',(3.94430452610506E-30,0.,0.));
#845=CARTESIAN_POINT('',(-1.55431223447522E-14,-1.53080849893419E-14,50.));
#846=CARTESIAN_POINT('',(-1.55431223447522E-14,2.49999999999999,50.));
#847=CARTESIAN_POINT('',(-3.10862446895044E-14,-3.06161699786838E-14,100.));
#848=CARTESIAN_POINT('',(-3.10862446895044E-14,-3.06161699786838E-14,100.));
#849=CARTESIAN_POINT('',(-3.10862446895044E-14,-3.06161699786838E-14,100.));
#850=CARTESIAN_POINT('Origin',(-2.66453525910038E-14,-3.06161699786838E-14,
100.));
#851=CARTESIAN_POINT('',(70.,-3.06161699786838E-14,100.));
#852=CARTESIAN_POINT('',(70.,-3.06161699786838E-14,100.));
#853=CARTESIAN_POINT('',(70.,-3.06161699786838E-14,100.));
#854=CARTESIAN_POINT('Origin',(70.,-3.06161699786838E-14,100.));
#855=CARTESIAN_POINT('',(70.,9.86076131526265E-31,3.01898744547311E-46));
#856=CARTESIAN_POINT('',(70.,9.86076131526265E-31,3.01898744547311E-46));
#857=CARTESIAN_POINT('',(70.,9.86076131526265E-31,3.01898744547311E-46));
#858=CARTESIAN_POINT('Origin',(35.,22.5,25.));
#859=CARTESIAN_POINT('',(35.,45.,0.));
#860=CARTESIAN_POINT('',(35.,0.,0.));
#861=CARTESIAN_POINT('',(35.,45.,4.));
#862=CARTESIAN_POINT('',(35.,45.,0.));
#863=CARTESIAN_POINT('',(35.,13.6138962366105,4.));
#864=CARTESIAN_POINT('',(35.,45.,4.));
#865=CARTESIAN_POINT('',(35.,13.6138962366105,4.));
#866=CARTESIAN_POINT('Origin',(0.,0.,0.));
#867=CARTESIAN_POINT('',(0.,0.,0.));
#868=CARTESIAN_POINT('',(0.,45.,0.));
#869=CARTESIAN_POINT('',(0.,0.,0.));
#870=CARTESIAN_POINT('',(0.,45.,0.));
#871=CARTESIAN_POINT('',(0.,0.,0.));
#872=CARTESIAN_POINT('',(5.5,19.,0.));
#873=CARTESIAN_POINT('',(9.5,19.,0.));
#874=CARTESIAN_POINT('Origin',(7.5,19.,0.));
#875=CARTESIAN_POINT('',(9.5,41.,0.));
#876=CARTESIAN_POINT('',(9.5,20.5,0.));
#877=CARTESIAN_POINT('',(5.5,41.,0.));
#878=CARTESIAN_POINT('Origin',(7.5,41.,0.));
#879=CARTESIAN_POINT('',(5.5,9.5,0.));
#880=CARTESIAN_POINT('',(25.5,19.,0.));
#881=CARTESIAN_POINT('',(29.5,19.,0.));
#882=CARTESIAN_POINT('Origin',(27.5,19.,0.));
#883=CARTESIAN_POINT('',(29.5,41.,0.));
#884=CARTESIAN_POINT('',(29.5,20.5,0.));
#885=CARTESIAN_POINT('',(25.5,41.,0.));
#886=CARTESIAN_POINT('Origin',(27.5,41.,0.));
#887=CARTESIAN_POINT('',(25.5,9.5,0.));
#888=CARTESIAN_POINT('Origin',(27.5,41.,4.));
#889=CARTESIAN_POINT('',(29.5,41.,4.));
#890=CARTESIAN_POINT('',(29.5,41.,4.));
#891=CARTESIAN_POINT('',(25.5,41.,4.));
#892=CARTESIAN_POINT('Origin',(27.5,41.,4.));
#893=CARTESIAN_POINT('',(25.5,41.,4.));
#894=CARTESIAN_POINT('Origin',(25.5,19.,4.));
#895=CARTESIAN_POINT('',(25.5,19.,4.));
#896=CARTESIAN_POINT('',(25.5,32.,4.));
#897=CARTESIAN_POINT('',(25.5,19.,4.));
#898=CARTESIAN_POINT('Origin',(27.5,19.,4.));
#899=CARTESIAN_POINT('',(29.5,19.,4.));
#900=CARTESIAN_POINT('Origin',(27.5,19.,4.));
#901=CARTESIAN_POINT('',(29.5,19.,4.));
#902=CARTESIAN_POINT('Origin',(29.5,41.,4.));
#903=CARTESIAN_POINT('',(29.5,43.,4.));
#904=CARTESIAN_POINT('Origin',(7.5,41.,4.));
#905=CARTESIAN_POINT('',(9.5,41.,4.));
#906=CARTESIAN_POINT('',(9.5,41.,4.));
#907=CARTESIAN_POINT('',(5.5,41.,4.));
#908=CARTESIAN_POINT('Origin',(7.5,41.,4.));
#909=CARTESIAN_POINT('',(5.5,41.,4.));
#910=CARTESIAN_POINT('Origin',(5.5,19.,4.));
#911=CARTESIAN_POINT('',(5.5,19.,4.));
#912=CARTESIAN_POINT('',(5.5,32.,4.));
#913=CARTESIAN_POINT('',(5.5,19.,4.));
#914=CARTESIAN_POINT('Origin',(7.5,19.,4.));
#915=CARTESIAN_POINT('',(9.5,19.,4.));
#916=CARTESIAN_POINT('Origin',(7.5,19.,4.));
#917=CARTESIAN_POINT('',(9.5,19.,4.));
#918=CARTESIAN_POINT('Origin',(9.5,41.,4.));
#919=CARTESIAN_POINT('',(9.5,43.,4.));
#920=CARTESIAN_POINT('Origin',(-10.,-1.33029478439186E-14,45.));
#921=CARTESIAN_POINT('',(-10.,-1.33029478439186E-14,45.));
#922=CARTESIAN_POINT('',(-10.,2.49999999999999,45.));
#923=CARTESIAN_POINT('',(-10.,-1.33226762955019E-14,-45.));
#924=CARTESIAN_POINT('',(-10.,-1.33029478439186E-14,-45.));
#925=CARTESIAN_POINT('',(-10.,-1.33029478439186E-14,45.));
#926=CARTESIAN_POINT('Origin',(-5.,4.99999999999998,45.));
#927=CARTESIAN_POINT('',(-5.,-1.38107802628766E-14,45.));
#928=CARTESIAN_POINT('',(-5.,4.99999999999998,45.));
#929=CARTESIAN_POINT('',(-5.,-1.38777878078145E-14,-45.));
#930=CARTESIAN_POINT('',(-5.,-1.38107802628766E-14,45.));
#931=CARTESIAN_POINT('',(-5.,4.99999999999998,-45.));
#932=CARTESIAN_POINT('Origin',(-7.5,2.49999999999998,-45.));
#933=CARTESIAN_POINT('',(0.,0.,-45.));
#934=CARTESIAN_POINT('Origin',(0.,4.99999999999998,45.));
#935=CARTESIAN_POINT('',(-15.,-1.38777878078145E-14,45.));
#936=CARTESIAN_POINT('',(0.,-1.37772764904077E-14,45.));
#937=CARTESIAN_POINT('',(-15.,4.99999999999998,45.));
#938=CARTESIAN_POINT('Origin',(0.,4.99999999999998,45.));
#939=CARTESIAN_POINT('',(0.,-1.37772764904077E-14,45.));
#940=CARTESIAN_POINT('',(0.,13.75,45.));
#941=CARTESIAN_POINT('',(0.,-1.37772764904077E-14,45.));
#942=CARTESIAN_POINT('Origin',(-15.,2.49999999999999,47.5));
#943=CARTESIAN_POINT('',(-15.,-1.55431223447522E-14,50.));
#944=CARTESIAN_POINT('',(-15.,0.,0.));
#945=CARTESIAN_POINT('',(-15.,-1.26130810815889E-14,50.));
#946=CARTESIAN_POINT('Origin',(0.,22.5,25.));
#947=CARTESIAN_POINT('',(0.,13.6138962366105,4.));
#948=CARTESIAN_POINT('',(0.,13.6138962366105,4.));
#949=CARTESIAN_POINT('',(0.,45.,4.));
#950=CARTESIAN_POINT('',(0.,45.,4.));
#951=CARTESIAN_POINT('',(0.,45.,0.));
#952=CARTESIAN_POINT('',(0.,-1.53080849893419E-14,50.));
#953=CARTESIAN_POINT('Origin',(0.,4.99999999999998,50.));
#954=CARTESIAN_POINT('',(0.,-1.53080849893419E-14,50.));
#955=CARTESIAN_POINT('Origin',(0.,13.6138962366105,4.));
#956=CARTESIAN_POINT('',(0.,13.6138962366105,4.));
#957=CARTESIAN_POINT('Origin',(0.,45.,4.));
#958=CARTESIAN_POINT('',(0.,45.,4.));
#959=CARTESIAN_POINT('Origin',(0.,45.,0.));
#960=CARTESIAN_POINT('Origin',(0.,-1.53080849893419E-14,50.));
#961=UNCERTAINTY_MEASURE_WITH_UNIT(LENGTH_MEASURE(0.01),#965,
'DISTANCE_ACCURACY_VALUE',
'Maximum model space distance between geometric entities at asserted c
onnectivities');
#962=UNCERTAINTY_MEASURE_WITH_UNIT(LENGTH_MEASURE(0.01),#965,
'DISTANCE_ACCURACY_VALUE',
'Maximum model space distance between geometric entities at asserted c
onnectivities');
#963=(
GEOMETRIC_REPRESENTATION_CONTEXT(3)
GLOBAL_UNCERTAINTY_ASSIGNED_CONTEXT((#961))
GLOBAL_UNIT_ASSIGNED_CONTEXT((#965,#967,#968))
REPRESENTATION_CONTEXT('','3D')
);
#964=(
GEOMETRIC_REPRESENTATION_CONTEXT(3)
GLOBAL_UNCERTAINTY_ASSIGNED_CONTEXT((#962))
GLOBAL_UNIT_ASSIGNED_CONTEXT((#965,#967,#968))
REPRESENTATION_CONTEXT('','3D')
);
#965=(
LENGTH_UNIT()
NAMED_UNIT(*)
SI_UNIT(.MILLI.,.METRE.)
);
#966=(
LENGTH_UNIT()
NAMED_UNIT(*)
SI_UNIT(.CENTI.,.METRE.)
);
#967=(
NAMED_UNIT(*)
PLANE_ANGLE_UNIT()
SI_UNIT($,.RADIAN.)
);
#968=(
NAMED_UNIT(*)
SI_UNIT($,.STERADIAN.)
SOLID_ANGLE_UNIT()
);
#969=SHAPE_DEFINITION_REPRESENTATION(#970,#971);
#970=PRODUCT_DEFINITION_SHAPE('',$,#973);
#971=SHAPE_REPRESENTATION('',(#609),#963);
#972=PRODUCT_DEFINITION_CONTEXT('part definition',#977,'design');
#973=PRODUCT_DEFINITION('\X2\96F64EF6\X0\1','\X2\96F64EF6\X0\1',#974,#972);
#974=PRODUCT_DEFINITION_FORMATION('',$,#979);
#975=PRODUCT_RELATED_PRODUCT_CATEGORY('\X2\96F64EF6\X0\1','\X2\96F64EF6\X0\1',
(#979));
#976=APPLICATION_PROTOCOL_DEFINITION('international standard',
'automotive_design',2009,#977);
#977=APPLICATION_CONTEXT(
'Core Data for Automotive Mechanical Design Process');
#978=PRODUCT_CONTEXT('part definition',#977,'mechanical');
#979=PRODUCT('\X2\96F64EF6\X0\1','\X2\96F64EF6\X0\1',$,(#978));
#980=PRESENTATION_STYLE_ASSIGNMENT((#981));
#981=SURFACE_STYLE_USAGE(.BOTH.,#984);
#982=SURFACE_STYLE_RENDERING_WITH_PROPERTIES($,#988,(#983));
#983=SURFACE_STYLE_TRANSPARENT(0.);
#984=SURFACE_SIDE_STYLE('',(#985,#982));
#985=SURFACE_STYLE_FILL_AREA(#986);
#986=FILL_AREA_STYLE('',(#987));
#987=FILL_AREA_STYLE_COLOUR('',#988);
#988=COLOUR_RGB('',0.749019607843137,0.749019607843137,0.749019607843137);
ENDSEC;
END-ISO-10303-21;
